<svg width="384" height="439" viewBox="0 0 384 439" fill="none" xmlns="http://www.w3.org/2000/svg">
<circle cx="191" cy="180" r="175" fill="#ED9B40"/>
<circle cx="275" cy="238" r="34" fill="#0F53F0"/>
<circle cx="150" cy="238" r="34" fill="#0F53F0"/>
<rect x="186.585" y="104" width="27.9388" height="142" transform="rotate(12.8518 186.585 104)" fill="#0F53F0"/>
<rect x="312.098" y="104" width="27.9388" height="125.098" transform="rotate(90 312.098 104)" fill="#0F53F0"/>
<rect x="315" y="138" width="12" height="125" transform="rotate(90 315 138)" fill="#0F53F0"/>
<path d="M306.928 248.96L280 242.822L311.701 104H340.031L306.928 248.96Z" fill="#0F53F0"/>
<path d="M99.918 121.434C100.977 121.122 102.09 121.727 102.402 122.786L117.692 174.603L132.204 140.858C132.516 140.134 133.203 139.691 133.94 139.653C134.961 139.349 136.049 139.898 136.4 140.915L143.342 161H180.009C181.113 161 182.009 161.895 182.009 163C182.009 164.104 181.113 165 180.009 165H142C141.175 165 140.467 164.501 140.161 163.788C140.051 163.634 139.96 163.463 139.896 163.275L134.113 146.544L119.404 180.75C119.375 180.818 119.34 180.884 119.304 180.947C119.151 181.634 118.641 182.221 117.918 182.434C116.859 182.747 115.746 182.141 115.434 181.082L100.515 130.522L81.416 191.292C81.1247 192.218 80.2211 192.782 79.291 192.679C79.1702 192.769 79.0393 192.848 78.8955 192.91C77.8813 193.347 76.7049 192.879 76.2676 191.865L64.6865 165H38C36.8954 165 36 164.104 36 163C36.0001 161.895 36.8955 161 38 161H66C66.9192 161 67.6908 161.621 67.9248 162.466C67.9741 162.546 68.0211 162.629 68.0596 162.719L78.5518 187.06L98.4004 123.908C98.4295 123.815 98.4662 123.727 98.5068 123.642C98.3632 122.672 98.9504 121.72 99.918 121.434Z" fill="#0F53F0"/>
<path d="M126.974 395.52C126.974 396.757 126.526 397.824 125.63 398.72C124.776 399.573 123.731 400 122.494 400H104.574V395.52H121.854V386.56H109.054C107.816 386.56 106.75 386.133 105.854 385.28C105 384.384 104.574 383.317 104.574 382.08V373.12C104.574 371.883 105 370.837 105.854 369.984C106.75 369.088 107.816 368.64 109.054 368.64H126.974V373.12H109.694V382.08H122.494C123.731 382.08 124.776 382.528 125.63 383.424C126.526 384.277 126.974 385.323 126.974 386.56V395.52ZM159.629 400H137.229V377.6L141.709 373.12H137.229V368.64H159.629V373.12H142.349V385.92L146.189 382.08H159.629V386.56H142.349V395.52H159.629V400ZM187.469 373.12H178.189V400H173.069V373.12H163.789V368.64H187.469V373.12ZM215.941 400H193.541V368.64H198.661V395.52H210.821V391.04H215.941V400ZM227.474 400H222.354V368.64H227.474V400ZM260.099 395.52C260.099 396.757 259.651 397.824 258.755 398.72C257.901 399.573 256.856 400 255.619 400H237.699V395.52H254.979V386.56H242.179C240.941 386.56 239.875 386.133 238.979 385.28C238.125 384.384 237.699 383.317 237.699 382.08V373.12C237.699 371.883 238.125 370.837 238.979 369.984C239.875 369.088 240.941 368.64 242.179 368.64H260.099V373.12H242.819V382.08H255.619C256.856 382.08 257.901 382.528 258.755 383.424C259.651 384.277 260.099 385.323 260.099 386.56V395.52ZM288.594 373.12H279.314V400H274.194V373.12H264.914V368.64H288.594V373.12Z" fill="#0C1318"/>
<path d="M154.367 424.76C154.367 425.379 154.143 425.912 153.695 426.36C153.268 426.787 152.746 427 152.127 427H140.927V415.8L143.167 413.56H140.927V411.32H149.887C150.506 411.32 151.028 411.544 151.455 411.992C151.903 412.419 152.127 412.941 152.127 413.56V418.04H152.191C152.81 418.04 153.322 418.264 153.727 418.712C154.154 419.139 154.367 419.661 154.367 420.28V424.76ZM149.567 418.04V413.56H143.487V419.96L145.407 418.04H149.567ZM151.807 424.76V420.28H143.487V424.76H151.807ZM172.929 427H170.369V425.08L168.449 427H161.729C161.111 427 160.577 426.787 160.129 426.36C159.703 425.912 159.489 425.379 159.489 424.76V411.32H162.049V424.76H170.369V411.32H172.929V427ZM181.237 427H178.677V411.32H181.237V427ZM198.189 427H186.989V411.32H189.549V424.76H195.629V422.52H198.189V427ZM214.836 424.76C214.836 425.357 214.612 425.88 214.164 426.328C213.716 426.776 213.193 427 212.596 427H201.396V415.8L203.636 413.56H201.396V411.32H212.596C213.193 411.32 213.716 411.544 214.164 411.992C214.612 412.44 214.836 412.963 214.836 413.56V424.76ZM212.276 424.76V413.56H203.956V426.68L205.876 424.76H212.276ZM231.627 427H220.427V415.8L222.667 413.56H220.427V411.32H231.627V413.56H222.987V419.96L224.907 418.04H231.627V420.28H222.987V424.76H231.627V427ZM250.187 427H246.923L240.267 420.28H247.307V413.56H238.987V427H236.427V415.768L238.667 413.56H236.427V411.32H247.627C248.224 411.32 248.747 411.544 249.195 411.992C249.643 412.44 249.867 412.963 249.867 413.56V419.64C249.867 421.347 249.12 422.2 247.627 422.2H245.707V422.552L250.187 427Z" fill="#ED9B40"/>
</svg>
